<!-- Generated by IcoMoon.io -->
<svg version="1.1" xmlns="http://www.w3.org/2000/svg" width="42" height="32" viewBox="0 0 42 32">
<title>envelope</title>
<path fill="#afb1b8" d="M37.332 2.417h-32.020c-2.036 0-3.692 1.546-3.692 3.446v20.667c0 1.9 1.654 3.446 3.692 3.446h32.020c2.038 0 3.695-1.546 3.695-3.446v-20.67c0-1.898-1.657-3.446-3.692-3.446zM37.332 4.714c0.167 0 0.327 0.032 0.473 0.089l-16.482 13.319-16.482-13.317c0.14-0.057 0.302-0.090 0.472-0.091h32.020zM37.332 27.68h-32.020c-0.679 0-1.231-0.517-1.231-1.15v-19.301l16.433 13.28c0.218 0.175 0.497 0.281 0.802 0.281 0.002 0 0.004 0 0.006 0h-0c0.002 0 0.004 0 0.007 0 0.304 0 0.583-0.106 0.803-0.283l-0.003 0.002 16.433-13.28v19.301c0 0.635-0.551 1.15-1.231 1.15z"></path>
</svg>
