<!-- Generated by IcoMoon.io -->
<svg version="1.1" xmlns="http://www.w3.org/2000/svg" width="22" height="32" viewBox="0 0 22 32">
<title>smartphone</title>
<path fill="#757575" d="M18.564 1.978h-14.008c-1.656 0-3.002 1.256-3.002 2.8v24.26c0 1.546 1.346 2.8 3 2.8h14.010c1.656 0 3.002-1.254 3.002-2.8v-24.258c0-1.544-1.346-2.8-3-2.8zM4.556 3.844h14.008c0.552 0 1 0.42 1 0.934v19.596h-16.010v-19.596c0-0.516 0.45-0.934 1-0.934zM18.564 29.972h-14.008c-0.552 0-1-0.418-1-0.932v-2.8h16.008v2.8c0 0.514-0.448 0.932-1 0.932z"></path>
<path fill="#757575" d="M6.264 27.446c0.18 0.163 0.293 0.399 0.293 0.66s-0.113 0.497-0.292 0.659l-0.001 0.001c-0.186 0.17-0.435 0.274-0.708 0.274s-0.522-0.104-0.709-0.275l0.001 0.001c-0.18-0.163-0.293-0.399-0.293-0.66s0.113-0.497 0.292-0.659l0.001-0.001c0.186-0.17 0.435-0.274 0.708-0.274s0.522 0.104 0.709 0.275l-0.001-0.001z"></path>
</svg>
