<!-- Generated by IcoMoon.io -->
<svg version="1.1" xmlns="http://www.w3.org/2000/svg" width="60" height="32" viewBox="0 0 60 32">
<title>client2</title>
<path fill="#afb1b8" d="M29.147 7.799h0.049c0.090 0 0.187 0.009 0.283 0.017 0.424 0.030 0.845 0.093 1.259 0.19v-1.018c-0.426-0.107-0.861-0.176-1.3-0.207-0.166-0.013-0.344-0.021-0.525-0.025h-0.152c-0.88 0.003-1.756 0.116-2.608 0.336-0.971 0.242-1.902 0.621-2.768 1.126v10.097c0.833-0.453 1.719-0.798 2.638-1.028 0.725-0.185 1.467-0.299 2.214-0.34h0.030c0.125-0.006 0.25-0.010 0.379-0.011v-1.034c-0.971 0.012-1.937 0.141-2.878 0.382-0.348 0.090-0.684 0.188-1 0.297l-0.36 0.122v-7.872l0.154-0.074c1.174-0.557 2.443-0.88 3.739-0.954 0.011-0.001 0.022-0.001 0.032 0 0.143-0.007 0.287-0.011 0.428-0.011h0.162c0.075 0.002 0.149 0.004 0.224 0.008z"></path>
<path fill="#afb1b8" d="M31.684 8.865c-0.237 0-0.47-0.008-0.696-0.025-0.27-0.020-0.547-0.052-0.809-0.097-0.16-0.027-0.317-0.060-0.47-0.095v9.981c0.647 0.16 1.312 0.239 1.979 0.233 0.88-0.004 1.756-0.116 2.608-0.335 0.971-0.242 1.903-0.621 2.769-1.126v-9.917c-0.833 0.452-1.719 0.798-2.637 1.029-0.896 0.23-1.817 0.348-2.742 0.352zM35.675 9.038l0.36-0.121v7.875l-0.154 0.074c-0.59 0.281-1.206 0.502-1.84 0.661-0.769 0.199-1.56 0.301-2.354 0.305-0.237 0-0.473-0.010-0.702-0.030l-0.246-0.022v-8.098l0.287 0.019c0.209 0.014 0.425 0.020 0.659 0.020 1.008-0.004 2.012-0.132 2.989-0.383 0.336-0.089 0.669-0.188 1-0.299z"></path>
<path fill="#afb1b8" d="M24.084 21.764c-0.052-0.054-0.114-0.096-0.183-0.124s-0.143-0.041-0.217-0.038c-0.079-0.001-0.158 0.014-0.231 0.043-0.067 0.027-0.129 0.067-0.18 0.118s-0.090 0.113-0.116 0.181c-0.028 0.071-0.042 0.147-0.041 0.223v1.349c-0.003 0.095 0.015 0.19 0.053 0.277 0.032 0.069 0.078 0.131 0.135 0.181 0.054 0.045 0.117 0.078 0.185 0.096 0.066 0.018 0.133 0.028 0.201 0.028 0.075 0.001 0.149-0.015 0.218-0.047 0.067-0.029 0.129-0.072 0.18-0.125 0.050-0.052 0.090-0.114 0.118-0.181 0.029-0.068 0.044-0.141 0.043-0.215v-0.151h-0.353v0.12c0.001 0.041-0.006 0.082-0.021 0.12-0.012 0.029-0.029 0.055-0.051 0.076-0.022 0.018-0.047 0.031-0.074 0.039-0.024 0.008-0.049 0.012-0.074 0.013-0.031 0.004-0.063-0.001-0.092-0.014s-0.054-0.033-0.073-0.059c-0.033-0.054-0.050-0.117-0.047-0.181v-1.258c-0.002-0.070 0.013-0.139 0.043-0.202 0.018-0.028 0.044-0.051 0.075-0.066s0.064-0.020 0.098-0.016c0.030-0.001 0.061 0.005 0.088 0.018s0.051 0.033 0.069 0.057c0.039 0.052 0.060 0.116 0.058 0.181v0.117h0.349v-0.137c0.001-0.081-0.014-0.161-0.043-0.236-0.026-0.071-0.066-0.135-0.118-0.19z"></path>
<path fill="#afb1b8" d="M26.179 21.749c-0.112-0.095-0.254-0.147-0.401-0.148-0.072 0-0.143 0.013-0.21 0.038-0.068 0.025-0.132 0.062-0.186 0.11-0.058 0.052-0.105 0.117-0.137 0.189-0.036 0.082-0.053 0.172-0.051 0.261v1.294c-0.002 0.091 0.015 0.181 0.051 0.265 0.032 0.070 0.079 0.131 0.137 0.181 0.054 0.050 0.117 0.089 0.186 0.114 0.067 0.025 0.139 0.038 0.21 0.038s0.143-0.013 0.21-0.038c0.070-0.026 0.135-0.064 0.191-0.114s0.102-0.112 0.133-0.181c0.036-0.084 0.054-0.174 0.051-0.265v-1.294c0.002-0.090-0.016-0.179-0.051-0.261-0.031-0.071-0.077-0.136-0.133-0.189zM26.015 23.493c0.003 0.035-0.002 0.069-0.014 0.102s-0.031 0.062-0.056 0.086c-0.047 0.039-0.105 0.060-0.166 0.060s-0.119-0.021-0.166-0.060c-0.025-0.024-0.044-0.053-0.056-0.086s-0.017-0.067-0.014-0.102v-1.294c-0.003-0.035 0.002-0.069 0.014-0.102s0.031-0.062 0.056-0.086c0.047-0.039 0.105-0.060 0.166-0.060s0.119 0.021 0.166 0.060c0.025 0.024 0.044 0.053 0.056 0.086s0.017 0.067 0.014 0.102v1.294z"></path>
<path fill="#afb1b8" d="M28.931 24.071v-2.449h-0.339l-0.445 1.297h-0.006l-0.449-1.297h-0.335v2.449h0.35v-1.49h0.006l0.343 1.053h0.174l0.345-1.053h0.006v1.49h0.35z"></path>
<path fill="#afb1b8" d="M30.918 21.793c-0.054-0.060-0.122-0.106-0.198-0.134-0.082-0.027-0.168-0.039-0.254-0.038h-0.52v2.449h0.349v-0.957h0.18c0.109 0.005 0.217-0.018 0.315-0.067 0.079-0.044 0.145-0.109 0.192-0.187 0.040-0.065 0.068-0.138 0.080-0.213 0.014-0.092 0.020-0.185 0.019-0.278 0.003-0.118-0.008-0.235-0.034-0.35-0.023-0.085-0.068-0.162-0.129-0.225zM30.738 22.54c-0.002 0.044-0.013 0.088-0.032 0.128-0.020 0.038-0.052 0.068-0.090 0.086-0.052 0.023-0.108 0.034-0.165 0.031h-0.159v-0.833h0.18c0.054-0.003 0.108 0.008 0.157 0.031 0.036 0.021 0.065 0.052 0.082 0.090 0.019 0.043 0.029 0.089 0.031 0.137 0 0.052 0 0.106 0 0.163s0.004 0.116 0 0.168h-0.004z"></path>
<path fill="#afb1b8" d="M32.572 21.622h-0.286l-0.54 2.449h0.349l0.103-0.526h0.476l0.103 0.526h0.349l-0.553-2.449zM32.25 23.211l0.172-0.888h0.006l0.171 0.888h-0.349z"></path>
<path fill="#afb1b8" d="M34.827 23.097h-0.006l-0.527-1.476h-0.335v2.449h0.349v-1.473h0.007l0.533 1.473h0.328v-2.449h-0.349v1.476z"></path>
<path fill="#afb1b8" d="M36.959 21.622l-0.281 0.974h-0.007l-0.281-0.974h-0.37l0.479 1.414v1.035h0.349v-1.035l0.479-1.414h-0.369z"></path>
<path fill="#afb1b8" d="M23.111 24.762h0.168v0.472h0.114v-0.472h0.167v-0.097h-0.45v0.097z"></path>
<path fill="#afb1b8" d="M24.525 24.666l-0.22 0.569h0.121l0.047-0.129h0.227l0.049 0.129h0.124l-0.226-0.569h-0.121zM24.507 25.009l0.077-0.211 0.077 0.211h-0.155z"></path>
<path fill="#afb1b8" d="M25.923 25.025h0.131v0.073c-0.038 0.031-0.086 0.048-0.135 0.048-0.023 0.001-0.046-0.003-0.067-0.012s-0.039-0.024-0.054-0.042c-0.030-0.043-0.045-0.096-0.042-0.148 0-0.127 0.055-0.19 0.164-0.19 0.029-0.003 0.057 0.005 0.081 0.021s0.041 0.041 0.048 0.069l0.112-0.022c-0.024-0.111-0.104-0.167-0.241-0.167-0.073-0.002-0.144 0.024-0.199 0.073-0.029 0.028-0.051 0.063-0.065 0.1s-0.020 0.078-0.017 0.118c-0.003 0.078 0.023 0.154 0.073 0.213 0.028 0.029 0.062 0.051 0.099 0.065s0.077 0.020 0.117 0.018c0.089 0.003 0.175-0.030 0.241-0.090v-0.224h-0.246v0.096z"></path>
<path fill="#afb1b8" d="M27.35 24.666h-0.115v0.569h0.398v-0.097h-0.283v-0.472z"></path>
<path fill="#afb1b8" d="M28.557 24.666h-0.115v0.569h0.115v-0.569z"></path>
<path fill="#afb1b8" d="M29.737 25.046l-0.233-0.38h-0.112v0.569h0.107v-0.372l0.228 0.372h0.114v-0.569h-0.105v0.38z"></path>
<path fill="#afb1b8" d="M30.804 24.984h0.283v-0.097h-0.283v-0.125h0.305v-0.097h-0.42v0.569h0.432v-0.097h-0.317v-0.154z"></path>
<path fill="#afb1b8" d="M33.391 24.89h-0.224v-0.224h-0.114v0.569h0.114v-0.249h0.224v0.249h0.114v-0.569h-0.114v0.224z"></path>
<path fill="#afb1b8" d="M34.464 24.984h0.284v-0.097h-0.284v-0.125h0.306v-0.097h-0.42v0.569h0.431v-0.097h-0.317v-0.154z"></path>
<path fill="#afb1b8" d="M35.919 24.984c0.099-0.015 0.149-0.068 0.149-0.158 0.003-0.024-0.001-0.049-0.011-0.071s-0.025-0.041-0.045-0.056c-0.051-0.026-0.109-0.037-0.166-0.033h-0.241v0.569h0.114v-0.238h0.022c0.024-0.002 0.049 0.003 0.071 0.013 0.017 0.010 0.031 0.025 0.041 0.042l0.124 0.181h0.137l-0.069-0.111c-0.031-0.055-0.074-0.102-0.126-0.137zM35.804 24.905h-0.084v-0.143h0.090c0.039-0.003 0.079 0.001 0.116 0.014 0.008 0.007 0.015 0.017 0.019 0.027s0.006 0.021 0.006 0.032c-0 0.011-0.004 0.022-0.009 0.032s-0.013 0.018-0.022 0.025c-0.038 0.012-0.077 0.016-0.116 0.014z"></path>
<path fill="#afb1b8" d="M37.017 24.984h0.283v-0.097h-0.283v-0.125h0.306v-0.097h-0.421v0.569h0.432v-0.097h-0.316v-0.154z"></path>
</svg>
