<!-- Generated by IcoMoon.io -->
<svg version="1.1" xmlns="http://www.w3.org/2000/svg" width="60" height="32" viewBox="0 0 60 32">
<title>client5</title>
<path fill="#afb1b8" d="M21.507 21.788c0.082 0.102 0.125 0.229 0.123 0.359 0.004 0.085-0.011 0.17-0.044 0.249s-0.083 0.149-0.147 0.205c-0.159 0.12-0.355 0.179-0.554 0.166h-0.974v-2.277h0.954c0.188-0.013 0.375 0.041 0.529 0.151 0.062 0.052 0.11 0.117 0.142 0.191s0.047 0.154 0.043 0.235c0.006 0.126-0.034 0.249-0.111 0.348-0.074 0.090-0.176 0.153-0.29 0.178 0.129 0.024 0.246 0.093 0.329 0.195zM20.364 21.444h0.408c0.093 0.007 0.185-0.020 0.259-0.076 0.031-0.028 0.054-0.062 0.070-0.101s0.021-0.080 0.018-0.122c0.003-0.041-0.003-0.083-0.018-0.121s-0.038-0.073-0.068-0.102c-0.077-0.057-0.172-0.085-0.267-0.077h-0.401v0.597zM21.071 22.317c0.033-0.029 0.058-0.064 0.075-0.104s0.024-0.084 0.021-0.127c0.003-0.044-0.005-0.088-0.022-0.128s-0.043-0.077-0.076-0.105c-0.080-0.059-0.178-0.089-0.277-0.082h-0.428v0.626h0.433c0.098 0.006 0.194-0.022 0.274-0.079z"></path>
<path fill="#afb1b8" d="M23.457 22.767l-0.531-0.89h-0.199v0.89h-0.456v-2.277h0.864c0.218-0.015 0.433 0.054 0.602 0.194 0.121 0.124 0.194 0.286 0.205 0.459s-0.038 0.344-0.141 0.483c-0.107 0.123-0.252 0.204-0.412 0.231l0.565 0.91h-0.496zM22.727 21.566h0.373c0.259 0 0.389-0.115 0.389-0.345 0.003-0.047-0.004-0.094-0.021-0.138s-0.042-0.084-0.074-0.118c-0.082-0.068-0.187-0.102-0.294-0.092h-0.378l0.004 0.693z"></path>
<path fill="#afb1b8" d="M25.952 22.308h-0.91l-0.161 0.458h-0.479l0.835-2.252h0.517l0.832 2.252h-0.479l-0.157-0.458zM25.83 21.963l-0.332-0.961-0.332 0.961h0.665z"></path>
<path fill="#afb1b8" d="M29.076 22.767h-0.453l-1.016-1.549v1.549h-0.452v-2.277h0.452l1.016 1.558v-1.558h0.453v2.277z"></path>
<path fill="#afb1b8" d="M31.662 22.222c-0.094 0.172-0.236 0.312-0.41 0.402-0.197 0.1-0.416 0.149-0.637 0.144h-0.807v-2.277h0.807c0.221-0.006 0.439 0.042 0.637 0.14 0.173 0.088 0.316 0.226 0.41 0.397 0.093 0.185 0.142 0.39 0.142 0.597s-0.049 0.412-0.142 0.597zM31.143 22.167c0.129-0.151 0.2-0.344 0.2-0.543s-0.071-0.392-0.2-0.543c-0.156-0.137-0.36-0.207-0.567-0.194h-0.315v1.474h0.315c0.207 0.013 0.411-0.057 0.567-0.194z"></path>
<path fill="#afb1b8" d="M26.236 7.822c0 0 5.849 2.217 5.725 5.426v5.427c0 0-5.845-2.218-5.723-5.427l-0.002-5.426z"></path>
<path fill="#afb1b8" d="M37.173 17.404c1.105-0.763 2.382-1.236 3.716-1.375v-1.699c-1.537 0.595-2.841 1.673-3.716 3.074z"></path>
<path fill="#afb1b8" d="M36.509 17.916c0.904-1.828 2.472-3.239 4.38-3.942v-4.895c0 0-8.33 3.158-8.154 7.728v7.726c0 0 0.371-0.141 0.955-0.406 0-0.247 0-0.496 0.027-0.747 0.172-2.121 1.177-4.087 2.792-5.465z"></path>
<path fill="#afb1b8" d="M35.717 20.786c0.044-0.536 0.141-1.066 0.291-1.582-1.006 1.19-1.615 2.666-1.742 4.222-0.012 0.147-0.019 0.294-0.022 0.445 0.473-0.228 1.024-0.513 1.602-0.848-0.148-0.736-0.191-1.489-0.129-2.237z"></path>
<path fill="#afb1b8" d="M36.048 20.814c-0.055 0.677-0.021 1.358 0.103 2.026 2.276-1.367 4.833-3.48 4.735-6.033v-0.223c-1.626 0.183-3.147 0.896-4.33 2.031-0.277 0.703-0.448 1.444-0.508 2.198z"></path>
</svg>
