<svg aria-hidden="true" style="position: absolute; width: 0; height: 0; overflow: hidden;" version="1.1" xmlns="http://www.w3.org/2000/svg" xmlns:xlink="http://www.w3.org/1999/xlink">
<defs>
<symbol id="antenna" viewBox="0 0 32 32">
<path fill="#212121" style="fill: var(--color1, #212121)" d="M30.773 22.098l-8.443-8.505 0.937-4.616c0.225 0.090 0.485 0.144 0.758 0.146h0.007c0.008 0 0.017 0 0.026 0 1.192 0 2.159-0.967 2.159-2.159s-0.967-2.159-2.159-2.159c-1.192 0-2.159 0.967-2.159 2.159 0 0.259 0.046 0.508 0.13 0.739l-0.005-0.015-4.96 0.606-8.091-8.133c-0.096-0.098-0.229-0.159-0.376-0.16v0c-0.14 0.001-0.274 0.057-0.373 0.155l-1.512 1.504c-0.096 0.097-0.156 0.23-0.156 0.377s0.060 0.281 0.156 0.377v0l0.814 0.825c-1.143 2.062-1.816 4.522-1.816 7.139 0 4.106 1.656 7.824 4.336 10.525l-0.001-0.001c0.043 0.041 0.092 0.074 0.146 0.097-0.032 0.164-0.051 0.353-0.052 0.546v6.188h-6.4c-1.472 0.001-2.666 1.194-2.667 2.666v1.067c0 0.295 0.239 0.534 0.534 0.534h24.534c0.294 0 0.533-0.239 0.533-0.534v-1.067c-0.002-1.472-1.195-2.665-2.666-2.666h-6.4v-2.742c1.003 0.21 2.024 0.317 3.049 0.32 2.58-0.003 5.005-0.663 7.117-1.822l-0.077 0.039 0.818 0.823c0.099 0.101 0.235 0.159 0.376 0.16 0.14-0.001 0.274-0.057 0.373-0.155l1.512-1.504c0.096-0.097 0.156-0.23 0.156-0.377s-0.060-0.281-0.156-0.377v0zM23.28 6.233c0.193-0.192 0.459-0.31 0.752-0.31 0.589 0 1.067 0.478 1.067 1.066s-0.477 1.066-1.067 1.066c0 0 0 0 0 0h-0.004c-0.587-0.003-1.061-0.479-1.061-1.066 0-0.295 0.12-0.563 0.314-0.756v0h-0.002zM22.024 9.737l-0.598 2.946-1.175-1.183 1.774-1.763zM21.419 8.835l-1.92 1.909-1.486-1.493 3.406-0.416zM24.004 28.8c0.884 0 1.6 0.716 1.6 1.6v0 0.534h-23.466v-0.534c0-0.884 0.716-1.6 1.6-1.6v0h20.267zM16.538 26.666v1.067h-5.334v-1.067h5.334zM11.204 25.6v-4.053c0-1.294 1.196-2.346 2.667-2.346s2.667 1.053 2.667 2.346v4.053h-5.334zM17.604 23.904v-2.357c0-1.882-1.675-3.413-3.733-3.413-0.017 0-0.038 0-0.058 0-1.353 0-2.54 0.707-3.213 1.771l-0.009 0.016c-2.36-2.482-3.812-5.846-3.812-9.55 0-2.314 0.567-4.496 1.569-6.414l-0.036 0.077 18.602 18.709c-1.823 0.947-3.979 1.502-6.266 1.502-1.079 0-2.128-0.124-3.136-0.357l0.093 0.018zM28.893 23.22l-21.057-21.181 0.754-0.752 7.935 7.98c0.004 0 0.006 0.007 0.010 0.010l13.114 13.191-0.757 0.752z"></path>
<path fill="#2196f3" style="fill: var(--color2, #2196f3)" d="M13.876 20.267h-0.005c-0.001 0-0.002 0-0.002 0-0.884 0-1.6 0.716-1.6 1.6s0.715 1.599 1.597 1.6h0.005c0.001 0 0.001 0 0.002 0 0.884 0 1.6-0.716 1.6-1.6s-0.715-1.599-1.598-1.6v0zM14.249 22.245c-0.096 0.096-0.229 0.155-0.376 0.155-0.295 0-0.534-0.239-0.534-0.534s0.238-0.533 0.532-0.533v0c0.293 0.001 0.531 0.239 0.531 0.533 0 0.148-0.060 0.282-0.157 0.378v0h0.005z"></path>
</symbol>
<symbol id="astronaut" viewBox="0 0 32 32">
<path fill="#2196f3" style="fill: var(--color2, #2196f3)" d="M31.974 4.524c-0.064-0.191-0.227-0.332-0.427-0.362h-0.003l-1.91-0.278-0.855-1.731c-0.179-0.365-0.777-0.365-0.956 0l-0.855 1.731-1.911 0.278c-0.26 0.039-0.457 0.26-0.457 0.528 0 0.15 0.062 0.285 0.161 0.382l1.383 1.348-0.326 1.903c-0.034 0.2 0.048 0.402 0.212 0.522 0.166 0.12 0.382 0.135 0.562 0.040l1.708-0.899 1.709 0.899c0.072 0.038 0.157 0.061 0.247 0.061 0.295 0 0.534-0.239 0.534-0.534 0-0.031-0.003-0.062-0.008-0.092v0.003l-0.326-1.903 1.383-1.348c0.099-0.097 0.16-0.232 0.16-0.382 0-0.059-0.010-0.116-0.027-0.169l0.001 0.004zM29.511 5.851c-0.125 0.122-0.183 0.299-0.153 0.472l0.191 1.114-1.001-0.526c-0.072-0.039-0.158-0.061-0.248-0.061s-0.176 0.023-0.251 0.063l0.003-0.001-1.001 0.526 0.192-1.114c0.005-0.027 0.008-0.058 0.008-0.090 0-0.15-0.062-0.285-0.161-0.382l-0.811-0.79 1.119-0.162c0.174-0.025 0.324-0.134 0.402-0.292l0.5-1.013 0.501 1.013c0.078 0.158 0.228 0.267 0.402 0.292l1.119 0.162-0.809 0.79zM26.134 20.522h-1.067v1.067h1.067v-1.067zM26.134 22.656h-1.067v1.066h1.067v-1.066zM27.2 21.589h-1.067v1.067h1.067v-1.067z"></path>
<path fill="#2196f3" style="fill: var(--color2, #2196f3)" d="M25.067 21.589h-1.067v1.067h1.067v-1.067zM22.4 26.389h-1.067v1.067h1.067v-1.067zM22.4 28.523h-1.067v1.067h1.067v-1.067zM23.466 27.456h-1.067v1.067h1.067v-1.067zM21.334 27.456h-1.067v1.067h1.067v-1.067zM16 24.256h-1.067v1.067h1.067v-1.067zM16 26.389h-1.067v1.067h1.067v-1.067zM17.067 25.322h-1.067v1.067h1.067v-1.067zM14.933 25.322h-1.066v1.067h1.066v-1.067zM5.867 6.122h-1.067v1.066h1.067v-1.066zM5.867 8.256h-1.067v1.066h1.067v-1.066zM6.933 7.189h-1.067v1.067h1.066v-1.067zM4.8 7.189h-1.067v1.067h1.067v-1.067z"></path>
<path fill="#212121" style="fill: var(--color1, #212121)" d="M24.715 14.16c-0.28-0.376-0.698-0.636-1.179-0.703l-0.009-0.001c-0.076-0.012-0.164-0.018-0.254-0.018-0.411 0-0.789 0.139-1.090 0.373l0.004-0.003-1.253 0.96-1.898 1.417-1.358-0.541c2.421-1.086 4.113-3.508 4.113-6.32 0-3.823-3.122-6.934-6.961-6.934s-6.961 3.11-6.961 6.934c0 1.386 0.415 2.674 1.12 3.759l-2.768-0.024c-0.009 0-0.016 0.005-0.023 0.005-0.057 0.003-0.11 0.014-0.159 0.033l0.004-0.001c-0.013 0.005-0.026 0.007-0.038 0.013-0.006 0.003-0.013 0.003-0.019 0.006l-3.233 1.596c0 0-0.001 0-0.001 0.001l-1.893 0.91c-0.024 0.011-0.045 0.023-0.065 0.036l0.001-0.001c-0.482 0.324-0.795 0.867-0.795 1.483 0 0.297 0.073 0.577 0.201 0.823l-0.005-0.010c0.22 0.424 0.592 0.742 1.043 0.885l0.013 0.003c0.161 0.053 0.345 0.083 0.537 0.083 0.308 0 0.598-0.078 0.851-0.216l-0.009 0.005 1.388-0.738 2.264-1.169 1.357-0.008-5.442 5.415c0 0.001-0.001 0.001-0.001 0.001l-1.339 1.333c-0.303 0.299-0.49 0.714-0.49 1.173 0 0.002 0 0.004 0 0.005v0c0 0.444 0.174 0.863 0.49 1.178 0.301 0.3 0.717 0.485 1.176 0.485 0.001 0 0.002 0 0.004 0v0c0.428 0 0.854-0.162 1.18-0.485l1.314-1.309 1.741-1.3 0.901 0.897-3.102 3.088c-0.303 0.299-0.491 0.714-0.491 1.173 0 0.001 0 0.003 0 0.004v0c0 0.445 0.174 0.864 0.49 1.179 0.302 0.3 0.717 0.485 1.176 0.485 0.001 0 0.002 0 0.003 0v0c0.427 0 0.855-0.162 1.18-0.485l4.488-4.472c0.007-0.006 0.016-0.009 0.022-0.016l5.166-5.658 3.471 0.494c0.025 0.004 0.050 0.006 0.075 0.006 0.065 0 0.127-0.016 0.187-0.038 0.018-0.006 0.033-0.015 0.050-0.023 0.019-0.010 0.039-0.015 0.058-0.027l3.213-2.133c0.012-0.008 0.018-0.021 0.029-0.030 0.013-0.010 0.029-0.014 0.041-0.026l1.271-1.191c0.348-0.326 0.564-0.787 0.564-1.3 0-0.4-0.132-0.769-0.355-1.066l0.003 0.005zM2.13 17.77c-0.098 0.054-0.215 0.086-0.34 0.086-0.078 0-0.153-0.013-0.224-0.036l0.005 0.001c-0.294-0.093-0.504-0.364-0.504-0.683 0-0.235 0.114-0.444 0.289-0.575l0.002-0.001 1.314-0.632 0.449 1.313-0.992 0.527zM5.627 15.942l-1.548 0.8-0.255-0.746-0.184-0.537 2.027-1.001-0.040 1.484zM20.727 9.322c0 0.918-0.219 1.785-0.599 2.56l-4.181-1.899c-0.044-0.575-0.342-1.072-0.782-1.384l-0.006-0.004 1.463-4.861c2.378 0.757 4.105 2.975 4.105 5.588zM8.938 9.322c0-3.235 2.644-5.867 5.894-5.867 0.253 0 0.5 0.022 0.745 0.053l-1.432 4.753c-0.019 0-0.037-0.006-0.057-0.006 0 0-0.001 0-0.001 0-1.032 0-1.869 0.835-1.872 1.867v0c0.003 1.031 0.84 1.867 1.872 1.867 0 0 0.001 0 0.001 0v0c0.695 0 1.295-0.383 1.618-0.944l3.863 1.755c-1.075 1.447-2.795 2.39-4.737 2.39-3.25 0-5.894-2.632-5.894-5.867zM14.895 10.122c0 0.441-0.362 0.8-0.806 0.8 0 0-0.001 0-0.001 0-0.443 0-0.802-0.358-0.804-0.8v0c0-0.441 0.361-0.8 0.806-0.8s0.806 0.359 0.806 0.8zM2.464 25.146c-0.11 0.109-0.261 0.176-0.428 0.176s-0.317-0.067-0.427-0.175v0c-0.109-0.108-0.176-0.257-0.176-0.422s0.067-0.314 0.176-0.422v0l0.962-0.959 0.852 0.848-0.959 0.954zM5.678 28.88c-0.11 0.109-0.261 0.176-0.428 0.176s-0.317-0.067-0.427-0.175v0c-0.109-0.108-0.176-0.257-0.176-0.422s0.067-0.314 0.176-0.422v0l0.963-0.959 0.852 0.848-0.96 0.955zM9.16 25.411l-0.001 0.001-1.765 1.76-0.852-0.848 1.765-1.757c0.040-0.040 0.065-0.088 0.090-0.136 0.007-0.014 0.020-0.026 0.026-0.040 0.016-0.041 0.019-0.085 0.026-0.128 0.003-0.025 0.014-0.048 0.014-0.073 0-0.035-0.013-0.070-0.020-0.105-0.006-0.032-0.006-0.064-0.019-0.096-0.025-0.053-0.055-0.098-0.092-0.138v0c-0.010-0.012-0.014-0.026-0.025-0.038h-0.001s0-0.001-0.001-0.002l-1.607-1.6c-0.017-0.017-0.039-0.024-0.058-0.038-0.025-0.021-0.054-0.040-0.084-0.056l-0.003-0.001c-0.027-0.012-0.058-0.023-0.090-0.031l-0.003-0.001c-0.030-0.009-0.065-0.017-0.101-0.020h-0.002c-0.007 0-0.015 0-0.023 0-0.026 0-0.051 0.002-0.075 0.005h0.003c-0.036 0.005-0.069 0.009-0.104 0.021s-0.064 0.027-0.095 0.045c-0.020 0.011-0.042 0.015-0.061 0.029l-1.773 1.324-0.901-0.897 2.399-2.386 4.361 4.289-0.928 0.919zM15.979 18.394c-0.015-0.002-0.030 0.004-0.045 0.003-0.008 0-0.017-0.001-0.027-0.001-0.031 0-0.062 0.003-0.092 0.008h0.003c-0.030 0.006-0.059 0.011-0.088 0.021-0.037 0.013-0.069 0.029-0.098 0.048l0.002-0.001c-0.031 0.019-0.059 0.039-0.084 0.062v0c-0.013 0.011-0.028 0.016-0.040 0.029l-4.698 5.146-4.328-4.256 2.833-2.818c0.096-0.097 0.156-0.23 0.156-0.377 0-0.295-0.239-0.534-0.534-0.534-0.001 0-0.001 0-0.002 0v0l-2.219 0.013 0.028-1.607 3.104 0.027c1.264 1.297 3.027 2.101 4.978 2.101 0.001 0 0.002 0 0.003 0v0c0.438 0 0.864-0.046 1.28-0.122 0.040 0.032 0.080 0.064 0.129 0.085l2.41 0.96 0.152 0.758 0.178 0.886-3.003-0.427zM20.020 18.572l-0.313-1.558 1.446-1.080 0.946 1.257-2.080 1.381zM23.774 15.741l-0.838 0.785-0.931-1.236 0.831-0.637c0.155-0.119 0.351-0.168 0.543-0.143 0.193 0.027 0.364 0.128 0.48 0.284 0.088 0.117 0.141 0.265 0.141 0.426 0 0.206-0.087 0.391-0.226 0.521v0z"></path>
<path fill="#212121" style="fill: var(--color1, #212121)" d="M13.602 18.544l-2.143-2.134c-0.096-0.096-0.229-0.156-0.376-0.156s-0.28 0.059-0.376 0.156v0l-2.143 2.134c-0.097 0.097-0.156 0.23-0.156 0.378s0.060 0.281 0.156 0.378v0l2.143 2.134c0.096 0.096 0.229 0.156 0.376 0.156s0.28-0.059 0.376-0.156v0l2.143-2.134c0.097-0.097 0.157-0.23 0.157-0.378s-0.060-0.281-0.157-0.378v0zM11.083 20.303l-1.387-1.381 1.386-1.381 1.387 1.381-1.387 1.381zM17.164 5.071l-0.258 1.036c0.071 0.018 1.738 0.452 1.738 2.149h1.067c0-2.017-1.666-2.965-2.547-3.184zM19.711 9.322h-1.067v1.066h1.067v-1.066z"></path>
</symbol>
<symbol id="clock" viewBox="0 0 32 32">
<path fill="#212121" style="fill: var(--color1, #212121)" d="M31.296 15.301c-0.001-8.452-6.855-15.303-15.308-15.301s-15.303 6.855-15.301 15.308c0.002 6.788 4.422 12.543 10.541 14.545l0.108 0.031c0.061 0.019 0.123 0.029 0.187 0.029 0.12 0 0.238-0.032 0.342-0.094 0.135-0.080 0.236-0.207 0.283-0.357l3.865-12.25c1.054-0.004 1.906-0.859 1.906-1.913 0-1.056-0.856-1.913-1.913-1.913-0.303 0-0.59 0.071-0.845 0.196l0.011-0.005-5.106-5.107c-0.114-0.11-0.271-0.179-0.443-0.179-0.352 0-0.638 0.286-0.638 0.638 0 0.172 0.068 0.328 0.179 0.443v0l5.103 5.109c-0.121 0.241-0.191 0.525-0.191 0.826 0 0.602 0.283 1.137 0.723 1.48l0.004 0.003-3.682 11.673c-7.278-2.681-11.004-10.754-8.324-18.032s10.754-11.004 18.032-8.323c7.278 2.681 11.004 10.754 8.323 18.032-1.345 3.581-4.003 6.406-7.374 7.938l-0.088 0.036-0.398-1.874c-0.063-0.291-0.318-0.506-0.624-0.506-0.164 0-0.313 0.062-0.426 0.163l0.001-0.001-3.837 3.426c-0.132 0.117-0.214 0.287-0.214 0.477 0 0.283 0.185 0.524 0.441 0.606l0.005 0.001 4.899 1.563c0.058 0.020 0.126 0.031 0.196 0.031 0.352 0 0.637-0.285 0.637-0.637 0-0.047-0.005-0.093-0.015-0.138l0.001 0.004-0.391-1.839c5.528-2.374 9.329-7.772 9.329-14.057 0-0.011 0-0.023 0-0.034v0.002zM15.992 14.664c0.352 0 0.638 0.286 0.638 0.638s-0.285 0.638-0.638 0.638v0c-0.352 0-0.638-0.286-0.638-0.638s0.286-0.638 0.638-0.638v0zM18.092 29.528l2.184-1.948 0.603 2.84-2.787-0.892z"></path>
<path fill="#2196f3" style="fill: var(--color2, #2196f3)" d="M15.354 3.185v1.275c0 0.352 0.286 0.638 0.638 0.638s0.638-0.285 0.638-0.638v0-1.275c0-0.352-0.285-0.638-0.638-0.638s-0.638 0.285-0.638 0.638v0zM3.876 14.664c-0.352 0-0.638 0.286-0.638 0.638s0.285 0.638 0.638 0.638h1.275c0.352 0 0.638-0.286 0.638-0.638s-0.285-0.638-0.638-0.638h-1.275zM28.108 15.939c0.352 0 0.638-0.286 0.638-0.638s-0.285-0.638-0.638-0.638h-1.275c-0.352 0-0.638 0.286-0.638 0.638s0.285 0.638 0.638 0.638h1.275z"></path>
</symbol>
<symbol id="diagram" viewBox="0 0 32 32">
<path fill="#2196f3" style="fill: var(--color2, #2196f3)" d="M14.926 14.965h1.066v4.798h-1.066v-4.798zM19.19 17.097h1.066v2.665h-1.066v-2.665zM10.661 18.696h1.066v1.066h-1.066v-1.066zM7.463 18.163h1.066v1.599h-1.066v-1.599z"></path>
<path fill="#212121" style="fill: var(--color1, #212121)" d="M1.599 28.291h25.586c0 0 0 0 0 0 0.883 0 1.599-0.716 1.599-1.599v0-2.132c0-0.883-0.716-1.599-1.599-1.599v0h-0.533v-13.294l3.028-2.868c0.207 0.104 0.452 0.166 0.711 0.166 0.888 0 1.608-0.72 1.608-1.608s-0.72-1.608-1.608-1.608c-0.888 0-1.608 0.72-1.608 1.608 0 0.247 0.056 0.481 0.155 0.69l-0.004-0.010-2.281 2.162v-1.23c0-0.883-0.716-1.599-1.599-1.599v0h-21.323c-0.883 0-1.599 0.716-1.599 1.599v0 15.992h-0.533c-0.883 0-1.599 0.716-1.599 1.599v0 2.132c0 0.883 0.716 1.599 1.599 1.599v0zM30.384 4.837c0.294 0 0.533 0.239 0.533 0.533s-0.239 0.533-0.533 0.533v0c-0.294 0-0.533-0.239-0.533-0.533s0.239-0.533 0.533-0.533v0zM3.198 6.969c0-0.294 0.239-0.533 0.533-0.533h21.323c0.294 0 0.533 0.239 0.533 0.533v2.239l-1.066 1.013v-2.185c0-0.295-0.239-0.534-0.534-0.534h-19.189c-0.294 0-0.534 0.239-0.534 0.533v13.327c0 0.294 0.239 0.533 0.534 0.533h19.189c0.295 0 0.534-0.239 0.534-0.533v-9.675l1.066-1.010v12.283h-22.389v-15.991zM7.996 13.899c-0.001 0-0.003 0-0.005 0-0.883 0-1.599 0.716-1.599 1.599s0.716 1.599 1.599 1.599c0.432 0 0.824-0.172 1.112-0.45v0l1.853 0.93c0.215 0.107 0.476 0.057 0.636-0.122l3.939-4.432 3.872 2.902c0.208 0.155 0.498 0.139 0.686-0.039l3.365-3.188v8.131h-18.123v-12.261h18.123v2.661l-3.771 3.572-3.904-2.927c-0.088-0.067-0.2-0.107-0.32-0.107-0.158 0-0.3 0.069-0.398 0.178v0.001l-3.993 4.493-1.493-0.746c0.011-0.064 0.017-0.128 0.020-0.193 0-0.883-0.716-1.599-1.599-1.599v0zM8.529 15.498c0 0.294-0.239 0.533-0.533 0.533s-0.533-0.239-0.533-0.533v0c0-0.294 0.239-0.533 0.533-0.533s0.533 0.239 0.533 0.533v0zM11.727 24.026h5.33v0.533c0 0.294-0.238 0.533-0.533 0.533h-4.265c-0.294 0-0.533-0.239-0.533-0.533v0-0.533zM1.067 24.56c0-0.294 0.238-0.533 0.533-0.533h9.062v0.533c0 0.883 0.716 1.599 1.599 1.599v0h4.265c0.883 0 1.599-0.716 1.599-1.599v0-0.533h9.062c0.294 0 0.533 0.239 0.533 0.533v2.132c0 0.294-0.239 0.533-0.533 0.533h-25.586c0 0 0 0 0 0-0.294 0-0.533-0.239-0.533-0.533 0 0 0 0 0 0v0-2.132z"></path>
</symbol>
<symbol id="envelope" viewBox="0 0 42 32">
<path d="M37.332 2.417h-32.020c-2.036 0-3.692 1.546-3.692 3.446v20.667c0 1.9 1.654 3.446 3.692 3.446h32.020c2.038 0 3.695-1.546 3.695-3.446v-20.67c0-1.898-1.657-3.446-3.692-3.446zM37.332 4.714c0.167 0 0.327 0.032 0.473 0.089l-16.482 13.319-16.482-13.317c0.14-0.057 0.302-0.090 0.472-0.091h32.020zM37.332 27.68h-32.020c-0.679 0-1.231-0.517-1.231-1.15v-19.301l16.433 13.28c0.218 0.175 0.497 0.281 0.802 0.281 0.002 0 0.004 0 0.006 0v0c0.002 0 0.004 0 0.007 0 0.304 0 0.583-0.106 0.803-0.283l-0.003 0.002 16.433-13.28v19.301c0 0.635-0.551 1.15-1.231 1.15z"></path>
</symbol>
<symbol id="facebook" viewBox="0 0 32 32">
<path d="M21.328 5.312h2.923v-5.088c-1.232-0.143-2.66-0.224-4.107-0.224-0.052 0-0.104 0-0.157 0h0.008c-4.213 0-7.099 2.65-7.099 7.52v4.48h-4.646v5.688h4.646v14.312h5.698v-14.31h4.461l0.707-5.688h-5.168v-3.922c0-1.643 0.443-2.768 2.734-2.768z"></path>
</symbol>
<symbol id="iconsend" viewBox="0 0 32 32">
<path fill="#fff" style="fill: var(--color4, #fff)" d="M31.805 0.058l-30.739 17.274 9.824 3.635 15.151-14.191-11.525 15.535 0.010 0.003-0.013-0.003v8.458l5.51-6.422 6.979 2.583 4.803-26.872z"></path>
</symbol>
<symbol id="instagram" viewBox="0 0 32 32">
<path d="M31.968 9.408c-0.074-1.701-0.349-2.869-0.742-3.882-0.424-1.111-1.054-2.059-1.85-2.837l-0.001-0.001c-0.78-0.792-1.724-1.419-2.778-1.827l-0.054-0.018c-1.019-0.394-2.181-0.667-3.882-0.742-1.712-0.082-2.256-0.101-6.602-0.101-4.344 0-4.888 0.019-6.595 0.094-1.699 0.074-2.869 0.349-3.88 0.742-1.112 0.424-2.060 1.054-2.839 1.85l-0.001 0.001c-0.791 0.78-1.418 1.724-1.825 2.778l-0.018 0.054c-0.395 1.019-0.669 2.181-0.744 3.882-0.082 1.712-0.101 2.256-0.101 6.602 0 4.344 0.019 4.888 0.094 6.595 0.075 1.701 0.35 2.869 0.744 3.882 0.426 1.11 1.055 2.057 1.849 2.837l0.001 0.001c0.8 0.813 1.77 1.443 2.832 1.843 1.019 0.395 2.182 0.67 3.882 0.744 1.707 0.075 2.251 0.094 6.595 0.094 4.346 0 4.89-0.019 6.595-0.094 1.701-0.074 2.869-0.349 3.882-0.742 2.157-0.85 3.833-2.526 4.664-4.628l0.019-0.055c0.394-1.019 0.669-2.182 0.744-3.882 0.075-1.707 0.093-2.251 0.093-6.595s-0.006-4.888-0.080-6.595zM29.088 22.474c-0.070 1.563-0.333 2.406-0.55 2.97-0.552 1.399-1.64 2.486-3.004 3.024l-0.036 0.012c-0.56 0.219-1.411 0.482-2.968 0.55-1.688 0.075-2.194 0.094-6.464 0.094-4.269 0-4.782-0.019-6.464-0.094-1.563-0.069-2.406-0.331-2.97-0.55-0.721-0.269-1.334-0.676-1.836-1.192l-0.001-0.001c-0.517-0.503-0.924-1.117-1.184-1.803l-0.011-0.034c-0.218-0.563-0.48-1.413-0.549-2.97-0.075-1.688-0.094-2.195-0.094-6.464s0.019-4.784 0.094-6.464c0.069-1.563 0.331-2.406 0.549-2.97 0.269-0.722 0.678-1.337 1.198-1.837l0.002-0.002c0.504-0.517 1.119-0.923 1.806-1.182l0.034-0.011c0.56-0.219 1.411-0.48 2.968-0.55 1.688-0.074 2.195-0.093 6.464-0.093 4.275 0 4.782 0.019 6.464 0.093 1.563 0.069 2.406 0.331 2.97 0.55 0.693 0.256 1.325 0.662 1.837 1.194 0.531 0.52 0.938 1.144 1.195 1.84 0.218 0.56 0.48 1.411 0.549 2.968 0.075 1.688 0.094 2.194 0.094 6.464 0 4.269-0.019 4.768-0.094 6.458z"></path>
<path d="M16.059 7.782c-4.539 0.002-8.218 3.682-8.219 8.221v0c0.091 4.471 3.737 8.060 8.221 8.060s8.13-3.589 8.221-8.052v-0.009c-0.001-4.54-3.681-8.22-8.221-8.221v0zM16.059 21.334c-2.945 0-5.332-2.388-5.332-5.333s2.388-5.333 5.333-5.333c0 0 0.001 0 0.001 0v0c2.946 0 5.334 2.388 5.334 5.334s-2.388 5.334-5.334 5.334v0zM26.525 7.458c0 1.060-0.86 1.92-1.92 1.92s-1.92-0.86-1.92-1.92v0c0-1.060 0.86-1.92 1.92-1.92s1.92 0.86 1.92 1.92v0z"></path>
</symbol>
<symbol id="linkedin" viewBox="0 0 32 32">
<path d="M31.992 32h0.008v-11.738c0-5.741-1.235-10.163-7.947-10.163-3.227 0-5.392 1.77-6.277 3.45h-0.093v-2.914h-6.365v21.363h6.627v-10.578c0-2.786 0.528-5.48 3.978-5.48 3.398 0 3.45 3.179 3.45 5.658v10.402h6.619zM0.528 10.635h6.635v21.365h-6.635v-21.365zM3.843 0c-2.123 0-3.843 1.721-3.843 3.843v0c0 2.12 1.722 3.878 3.843 3.878 2.12 0 3.842-1.757 3.842-3.878s-1.72-3.841-3.841-3.843v0z"></path>
</symbol>
<symbol id="smartphone" viewBox="0 0 22 32">
<path d="M18.564 1.978h-14.008c-1.656 0-3.002 1.256-3.002 2.8v24.26c0 1.546 1.346 2.8 3 2.8h14.010c1.656 0 3.002-1.254 3.002-2.8v-24.258c0-1.544-1.346-2.8-3-2.8zM4.556 3.844h14.008c0.552 0 1 0.42 1 0.934v19.596h-16.010v-19.596c0-0.516 0.45-0.934 1-0.934zM18.564 29.972h-14.008c-0.552 0-1-0.418-1-0.932v-2.8h16.008v2.8c0 0.514-0.448 0.932-1 0.932z"></path>
<path d="M6.264 27.446c0.18 0.163 0.293 0.399 0.293 0.66s-0.113 0.497-0.292 0.659l-0.001 0.001c-0.186 0.17-0.435 0.274-0.708 0.274s-0.522-0.104-0.709-0.275l0.001 0.001c-0.18-0.163-0.293-0.399-0.293-0.66s0.113-0.497 0.292-0.659l0.001-0.001c0.186-0.17 0.435-0.274 0.708-0.274s0.522 0.104 0.709 0.275l-0.001-0.001z"></path>
</symbol>
<symbol id="twitter" viewBox="0 0 32 32">
<path d="M32 6.078c-1.1 0.493-2.376 0.857-3.713 1.028l-0.068 0.007c1.36-0.817 2.382-2.078 2.873-3.579l0.013-0.046c-1.197 0.722-2.591 1.273-4.076 1.573l-0.084 0.014c-1.2-1.279-2.9-2.076-4.787-2.076-3.622 0-6.558 2.936-6.558 6.558 0 0.001 0 0.003 0 0.004v0c0 0.52 0.043 1.021 0.152 1.496-5.454-0.266-10.28-2.88-13.522-6.861-0.564 0.949-0.899 2.092-0.902 3.313v0.001c0 2.272 1.171 4.286 2.914 5.451-1.091-0.030-2.107-0.325-2.994-0.823l0.033 0.017v0.072c0.003 3.165 2.236 5.807 5.213 6.44l0.043 0.008c-0.499 0.136-1.071 0.215-1.662 0.215-0.020 0-0.041 0-0.061 0h0.003c-0.419 0-0.843-0.024-1.242-0.112 0.85 2.598 3.261 4.509 6.13 4.57-2.215 1.746-5.045 2.8-8.122 2.8-0.004 0-0.008 0-0.013 0h0.001c-0.018 0-0.040 0-0.062 0-0.531 0-1.055-0.034-1.569-0.099l0.061 0.006c2.826 1.846 6.287 2.944 10.004 2.944 0.021 0 0.042 0 0.063 0h-0.003c12.072 0 18.672-10 18.672-18.669 0-0.288-0.010-0.57-0.024-0.848 1.299-0.936 2.39-2.064 3.258-3.355l0.030-0.047z"></path>
</symbol>
<symbol id="client4" viewBox="0 0 60 32">
  <path d="M9.2 9.5a3 3 0 00-3 3 3 3 0 003 3 3 3 0 003-3 3 3 0 00-3-3zM31.7 8.6c0-2.3-1-4.5-2.6-6S25.2 0 23 0c-2.3 0-4.6 1-6.2 2.5S14 6.3 14 8.6v12.6s17.6-2 17.6-12.6zM0 25.3c0 1.6.7 3 1.8 4.2s2.7 1.8 4.3 1.8c1.7 0 3.2-.7 4.4-1.8s1.8-2.6 1.8-4.2v-8.8S0 18 0 25.3zm6.1 1.6l-.9-.3c-.3-.2-.4-.4-.5-.7l-.1-1 .4-.7c.2-.2.5-.4.8-.4h1c.3 0 .5.4.7.6a1.5 1.5 0 01-.2 2 1.6 1.6 0 01-1.2.5zM18.7 25.9h-1.3v1.3h-.6V24h2v.5h-1.4v.9h1.3v.5zm3.1-.2c0 .3 0 .6-.2.8l-.4.5c-.2.2-.5.2-.7.2-.3 0-.5 0-.7-.2l-.5-.5-.2-.8v-.2c0-.3 0-.6.2-.8a1.3 1.3 0 011.2-.7c.2 0 .5 0 .7.2.2 0 .3.3.4.5.2.2.2.5.2.8v.2zm-.6-.2l-.2-.7c-.1-.1-.3-.3-.5-.3-.3 0-.4 0-.5.3-.2.1-.2.4-.2.7v.2c0 .3 0 .5.2.7s.2.3.5.3c.2 0 .4-.1.5-.3l.2-.7v-.2zm2.7.8v-.2l-.6-.2-.5-.3c-.4-.2-.5-.4-.5-.7l.1-.5.4-.3.6-.1h.6l.4.4.2.5h-.7l-.1-.3-.4-.1H23V25.2l.5.2.8.4.3.6c0 .3-.1.5-.3.7l-.9.2-.6-.1a1 1 0 01-.6-1h.6c0 .4.2.6.6.6h.4l.1-.4zm3.5-1.8h-1v2.7h-.6v-2.7h-1V24h2.6v.5zm2.3 1.3h-1.2v.9h1.4v.5h-2.1V24h2.1v.5h-1.4v.8h1.2v.5zm1.8.2H31v1.2h-.7V24h1.2c.4 0 .7 0 .9.3s.3.4.3.7c0 .2 0 .4-.2.5 0 .2-.2.3-.4.4l.7 1.3H32l-.6-1.2zm-.5-.5h.5l.4-.1.1-.4-.1-.3-.4-.2H31v1zm4 .6v1h-.7v-3H36l.5.4.1.6c0 .3-.1.5-.3.7-.2.2-.5.3-.9.3h-.6zm0-.6h.9l.1-.4v-.4l-.5-.2H35v1zm4 .3h-1.2v.9h1.5v.5h-2.1V24h2v.5h-1.4v.8h1.3v.5zm3.1-1.3h-1v2.7h-.6v-2.7h-1V24h2.6v.5zm2.3 1.3H43v.9h1.5v.5h-2.1V24h2.1v.5h-1.5v.8h1.3v.5zm1.8.2h-.6v1.2H45V24h1.2c.3 0 .6 0 .8.3s.3.4.3.7l-.1.5c0 .2-.2.3-.4.4l.7 1.3h-.7l-.6-1.2zm-.6-.5h.6l.4-.1V25v-.3l-.4-.2h-.6v1zm3.9.8l-.1-.2-.5-.2-.6-.3c-.3-.2-.5-.4-.5-.7 0-.2 0-.4.2-.5l.4-.3.6-.1h.6l.4.4.1.5h-.6l-.1-.3-.4-.1h-.4l-.1.4.1.2.5.2.8.4c.2.1.2.4.2.6 0 .3 0 .5-.3.7l-.8.2-.7-.1a1 1 0 01-.6-1h.7c0 .4.2.6.6.6h.4v-.4z"/></symbol>
<symbol id="client3" viewBox="0 0 31 32">
  <path d="M4.7 31.1l.2.2-.4.3-.6.1-.6-.1a1.2 1.2 0 01-.7-.7 1.6 1.6 0 010-1.2 1.3 1.3 0 01.8-.7 1.7 1.7 0 011.1 0l.4.2-.1.2H4.4a1 1 0 00-.3-.2 1.2 1.2 0 00-.7 0 1 1 0 00-.3.3 1 1 0 00-.2.3v.5.5l.2.3.3.2H4.1a.9.9 0 00.5-.2h.1zM9.1 30.3v.6l-.3.4-.5.3H7.1l-.4-.3-.3-.4v-1.2l.3-.4.4-.3h1.2c.2 0 .3.2.5.3l.2.4.1.6zm-.4 0v-.5a.9.9 0 00-.5-.6h-.9a.9.9 0 00-.5.6v1s0 .2.2.3l.3.2c.3.1.6.1.8 0a.9.9 0 00.6-.5v-.5zM12.2 30.8a3.5 3.5 0 01.1-.1l1-1.7h.4v2.7h-.3v-2-.1-.1l-1 1.7h-.2-.1l-1-1.7v2.1h-.4V29h.4l1 1.8zM15.8 30.6v1h-.3V29h1.3l.3.2.2.3v.7l-.2.3a1 1 0 01-.3.2h-1zm0-.3h.8l.2-.1.1-.2v-.2a.5.5 0 000-.4.8.8 0 00-.6-.2h-.5v1.1zM21 31.7h-.3-.1v-.1l-.3-.7H19l-.3.7h-.4l1.1-2.7h.4l1.2 2.8zm-2-1h1.2l-.5-1.2v-.2l-.1.1v.1l-.5 1.1zM22.6 29h.1l1.7 2v-2.1h.3v2.8h-.2-.1l-1.7-2.2v2.2h-.3v-2.8h.2zM27.5 30.6v1h-.3v-1L26 28.9h.4v.1l.7 1 .1.2v.1l.1-.1v-.1l.7-1.1h.5l-1 1.6zM12 24.3h.5c2.6-1 4.7-2.9 6.3-5.1s2.2-5 2.2-7.7L18 8.8c.6 2.9.4 5.9-.7 8.6s-3 5.1-5.4 6.9z"/>
  <path d="M11 24.2c2.6-1.8 4.6-4.3 5.7-7.1s1.3-6 .5-9l-4-3.8A18 18 0 0111 24.2zM24.7 14.7a14 14 0 01-7 9.2c2-.6 3.7-1.5 5.2-2.8s2.7-3 3.4-4.8l-1.6-1.6z"/>
  <path d="M24 14.3L21.8 12c0 2.5-.8 5-2.2 7.2s-3.4 3.9-5.7 5h1.6a14 14 0 008.7-10zM11.3 2.7L8.5 0C6 1 3.9 2.5 2.3 4.6S0 9.2 0 11.8c0 2.8 1 5.5 2.8 7.7s4.4 3.8 7.3 4.5a17.6 17.6 0 001.2-21.3zM30.5 13.9c0-3.4-1.4-6.6-3.9-9a13.5 13.5 0 00-14-2.8l17 16.3c.6-1.4 1-3 1-4.5z"/></symbol>
<symbol id="client6" viewBox="0 0 60 32">
  <path d="M31.1 14.9c-.3-.5-.4-1-.4-1.5v-2c0-.7.2-1.2.4-1.5s.7-.5 1.4-.5c.6 0 1 .1 1.3.4.2.4.4.8.3 1.3v.5h-1V11v-.5l-.2-.3a.6.6 0 00-.4-.1l-.4.1-.2.3v3l.1.8.2.1h.7l.1-.4v-1h1.1v.5c0 .5 0 1-.3 1.3-.3.3-.7.5-1.3.5s-1.1-.2-1.4-.5zM35.6 14.9c-.3-.3-.4-.8-.4-1.4v-2.2c0-.6.1-1.1.4-1.4s.7-.5 1.4-.5c.6 0 1 .2 1.3.5.3.3.4.8.4 1.4v2.2c0 .6-.1 1-.4 1.4s-.7.5-1.3.5-1.1-.2-1.4-.5zm1.9-.5l.1-.7V11l-.1-.6-.2-.2h-.6l-.2.2-.2.6v2.7c0 .2 0 .5.2.7l.2.1h.3a.7.7 0 00.5-.1zM40 9.5h1.2l.9 4 .9-4h1l.2 5.8h-.8l-.1-4-.9 4h-.7l-.8-4-.1 4h-.9l.1-5.8zM45.5 9.5h1.8c1 0 1.6.5 1.6 1.6 0 1-.6 1.6-1.7 1.6h-.6v2.6h-1.1V9.5zM47 12a.8.8 0 00.7-.2l.1-.7v-.5l-.1-.2h-.2a1 1 0 00-.5-.2h-.4V12h.4zM50.5 9.5h1.2l1.2 5.8h-1l-.3-1.4h-1l-.3 1.4h-1l1.2-5.8zm1 3.8l-.4-2.5-.4 2.5h.8zM53.9 9.5h.8l1.5 3.3V9.5h.9v5.8h-.8l-1.5-3.5v3.5h-1V9.5zM59.3 13L58 9.6h1l.8 2.3.7-2.3h1L60.4 13v2.2h-1V13zM32.8 17.8v.3H32v2.4h-.3V18h-1v-.3h2.2zM35.7 20.5h-.3l-.1-.1-.3-.6h-1.3l-.2.6-.1.1H33l1-2.7h.5l1.1 2.7zm-1.9-1H35l-.4-1-.1-.3v.1l-.1.1-.4 1.1zM37.6 20.2H38.2l.1-.1v-.6h-.5v-.3h.9v1a1.7 1.7 0 01-1.1.3H37l-.4-.4a1.3 1.3 0 01-.4-1v-.5l.4-.4.4-.3H38a1.4 1.4 0 01.7.2l-.1.2h-.2l-.2-.1a1.3 1.3 0 00-1 0 1 1 0 00-.3.2l-.2.3v1a1 1 0 00.6.5h.4zM41.2 20.2h1.2v.3h-1.6v-2.7h.4v2.4zM43.7 20.5h-.4v-2.7h.4v2.7zM45 17.8h.1l1.7 2v-2h.3v2.7H46.8l-1.7-2v2h-.3v-2.7h.2zM49.9 17.8v.3h-1.3v.9h1v.3h-1v.9h1.3v.3h-1.7v-2.7h1.7zM10 1.4l16.9 4.5v16l-17-4.6v-16zM8.8 0v18l19 5.2v-18L9 0z"/>
  <path d="M19.1 31.6L0 26.5V8.4l19.1 5.1v18.1z"/>
  <path d="M9.2 1.2l16.7 4.4-7.1 6.8L2 7.9l7-6.7zM8.9 0L0 8.4l19.1 5.1L28 5.1 8.9 0zM20.2 30.6l7.8-7.4-7.8-2v9.4z"/>
</symbol>
<symbol id="client5" viewBox="0 0 40 32">
  <path d="M3 26.7a1 1 0 01-.1 1.6c-.3.2-.7.3-1 .3H0v-4.3h1.8c.4 0 .7 0 1 .2a1 1 0 01.4.9c0 .2 0 .4-.2.6a1 1 0 01-.6.4c.3 0 .5.1.7.3zM1 26.1h.7c.2 0 .4 0 .5-.2a.5.5 0 00.2-.4.5.5 0 00-.2-.4.8.8 0 00-.5-.2H1v1.2zm1.3 1.7a.5.5 0 00.2-.5.6.6 0 00-.2-.4.8.8 0 00-.5-.2H.9V28h.8l.5-.1zM6.8 28.6l-1-1.7h-.4v1.7h-.9v-4.3h1.7c.4 0 .8 0 1.1.3.3.3.4.6.4 1s0 .6-.3.8c-.2.3-.4.4-.7.5l1 1.7h-1zm-1.4-2.3H6c.5 0 .8-.2.8-.6a.6.6 0 00-.2-.5.8.8 0 00-.6-.2h-.7v1.3zM11.6 27.7H9.8l-.3 1h-.9l1.6-4.4h1l1.6 4.3h-1l-.2-.9zm-.3-.6l-.6-1.9-.6 1.9h1.2zM17.6 28.6h-1l-1.9-3v3H14v-4.3h.8l2 3v-3h.9v4.3zM22.5 27.6c-.2.3-.5.6-.8.7l-1.2.3H19v-4.3h1.5c.4 0 .8 0 1.2.2l.8.8a2.5 2.5 0 010 2.3zm-1-.1a1.6 1.6 0 000-2.1c-.3-.3-.7-.4-1-.4h-.7v2.8h.6c.4 0 .8 0 1.1-.3zM12.1 0s11.2 4.2 11 10.4v10.4s-11.2-4.3-11-10.4V0zM33 18.3c2.2-1.4 4.6-2.3 7.2-2.6v-3.2c-3 1.1-5.5 3.2-7.1 5.8z"/>
  <path d="M31.8 19.3c1.7-3.5 4.7-6.2 8.4-7.5V2.4s-16 6-15.6 14.8V32l1.8-.8v-1.4c.4-4 2.3-7.8 5.4-10.5z"/>
  <path d="M30.3 24.8c0-1 .2-2 .5-3a14.3 14.3 0 00-3.4 9l3.1-1.7c-.3-1.4-.4-2.8-.2-4.3zM30.9 24.9c-.1 1.3 0 2.6.2 3.9 4.4-2.7 9.3-6.7 9-11.6v-.4c-3 .3-6 1.7-8.2 3.9-.6 1.3-.9 2.7-1 4.2z"/></symbol>
<symbol id="client2" viewBox="0 0 25 32">
  <path d="M10.4 1.8h.6c.8 0 1.5.2 2.2.4V.4A13 13 0 0010 0h-.2A18.3 18.3 0 00.5 2.5V20a19.5 19.5 0 018.4-2.4h.7v-1.8A21.2 21.2 0 002.9 17l-.7.2V3.6l.3-.1a17.4 17.4 0 017.3-1.7h.6z"/>
  <path d="M14.8 3.7a15.8 15.8 0 01-3.4-.4v17.3c1.1.2 2.3.4 3.4.4a18.4 18.4 0 009.3-2.6V1.3a19.6 19.6 0 01-9.3 2.4zm7 .3l.6-.3v13.7l-.3.1a17 17 0 01-8.5 1.6h-.4V5h1.6a21 21 0 007-1.2zM1.7 26a1 1 0 00-.7-.3 1 1 0 00-.4 0 1 1 0 00-.5.6V29v.5l.2.3.4.2h.7a1 1 0 00.5-.6V28.8h-.5v.4l-.2.1-.2.1a.3.3 0 01-.3-.1v-2.5-.4a.3.3 0 01.3 0H1.3V27H2v-.3a1 1 0 00-.3-.7zM5.3 26a1 1 0 00-.7-.3 1 1 0 00-.7.2 1 1 0 00-.2.4l-.1.4V29.4l.3.3.4.2a1 1 0 00.7 0c.1 0 .2 0 .3-.2l.2-.3.1-.4v-2.3-.4a1 1 0 00-.3-.4zM5 29a.4.4 0 01-.1.3.4.4 0 01-.6 0 .4.4 0 010-.3v-2.3a.4.4 0 010-.3.4.4 0 01.6 0 .4.4 0 01.1.3V29zM10 30v-4.3h-.5L8.7 28l-.8-2.3h-.6V30H8v-2.6l.6 1.8h.3l.6-1.8V30h.6zM13.5 26l-.3-.2h-1.4V30h.6v-1.7h.3l.6-.1.3-.3.2-.4a3 3 0 000-1l-.3-.5zm-.3 1.3v.2l-.2.2h-.6v-1.4h.6l.2.2v.8zM16.4 25.7h-.5l-1 4.3h.6l.2-1h.8l.2 1h.6l-1-4.3zm-.6 2.8l.3-1.6.3 1.6h-.6zM20.3 28.3l-1-2.6h-.5V30h.6v-2.6l1 2.6h.5v-4.3h-.6v2.6zM24 25.7l-.5 1.7-.5-1.7h-.7l.9 2.5V30h.6v-1.8l.8-2.5H24zM0 31.2h.3v.8h.2v-.8h.3V31H0v.2zM2.4 31l-.3 1h.2v-.2h.4l.1.2H3l-.3-1h-.3zm0 .6l.2-.4v.4h-.2zM4.9 31.6H5v.1l-.2.1h-.2l-.1-.3c0-.2 0-.3.3-.3H5c.1 0 0 0 0 .1h.3c0-.2-.2-.3-.4-.3l-.4.1-.1.2c-.1 0 0 .1 0 .2l.1.4a.5.5 0 00.4.1c.1 0 .3 0 .4-.2v-.3h-.4v.1zM7.3 31h-.2v1h.7v-.2h-.5V31zM9.4 31h-.2v1h.2v-1zM11.5 31.7L11 31h-.2v1h.2v-.7l.4.7h.2v-1h-.2v.7zM13.3 31.5h.5v-.1h-.5v-.2h.5V31h-.7v1h.8v-.2h-.6v-.3zM17.8 31.4h-.4V31h-.2v1h.2v-.4h.4v.4h.2v-1h-.2v.4zM19.6 31.5h.5v-.1h-.5v-.2h.6V31h-.7v1h.7v-.2h-.6v-.3zM22.2 31.5c.1 0 .2 0 .2-.2a.2.2 0 000-.2L22 31h-.4v1h.2v-.4h.2l.3.4h.2l-.1-.2-.2-.3zm-.2 0h-.2v-.3h.4v.1l-.2.1zM24 31.5h.6v-.1H24v-.2h.5V31h-.7v1h.7v-.2h-.5v-.3z"/></symbol>
<symbol id="client1" viewBox="0 0 29 32">
  <path d="M3.8 0l4.7 4.4h13v12.4l4.7 4.4V0H3.8z"/>
  <path d="M0 4.2v20.6h21.8v-8.1L8.7 4.2H0zm17.6 17.6H3.4V8h1v12.9h13.2v1zM6.3 28.7l.5-1.1h.4L6.5 29v.9H6V29l-.8-1.4h.4l.6 1zm2.2.6h-.9l-.2.6H7l.9-2.3h.4l.8 2.3h-.4l-.2-.6zm-.8-.3h.7l-.3-1-.4 1zm2.4.2V29l.4-.4-.2-.2V28l.1-.4.5-.1.4.1.1.4v.2l-.3.3H11l.4.6v-.4h.4c0 .3 0 .5-.2.7l.4.4h-.5l-.1-.2-.6.2c-.2 0-.4 0-.5-.2a.6.6 0 01-.2-.5zm.7.4l.4-.1-.5-.6c-.2.1-.2.2-.2.3v.3h.3zm-.2-1.5l.2.4.1-.2h.1V28v-.2H10.7v.2zm4.1 1c0 .3 0 .4-.2.6a1 1 0 01-.6.2l-.5-.1c-.2-.1-.3-.2-.3-.4l-.2-.6v-.2c0-.2 0-.4.2-.5l.3-.4.5-.1c.2 0 .4 0 .6.2l.2.5h-.3l-.2-.3-.3-.1c-.2 0-.3 0-.4.2l-.2.5v.2c0 .3 0 .4.2.6l.4.2.3-.1.2-.4h.3zm2.2-.3l-.1.6-.3.4a1 1 0 01-.5 0 1 1 0 01-.5 0 .9.9 0 01-.4-.4v-.7-.6a.9.9 0 01.9-.5h.5l.3.5.1.6zm-.4-.1l-.1-.6a.5.5 0 00-.4-.2c-.2 0-.3 0-.4.2a1 1 0 00-.2.5v.2c0 .2 0 .4.2.6l.4.2.4-.2.1-.6v-.1z"/></symbol>
<symbol id="closebtn" viewBox="0 0 32 32">
<path d="M26.667 7.289l-1.956-1.956-7.822 7.822-7.822-7.822-1.956 1.956 7.822 7.822-7.822 7.822 1.956 1.956 7.822-7.822 7.822 7.822 1.956-1.956-7.822-7.822 7.822-7.822z"></path>
</symbol>
<symbol id="telegram" viewBox="0 0 32 32">
<path d="M32 0l-32 18 10.227 3.788 15.773-14.788-11.998 16.186 0.010 0.004-0.012-0.004v8.814l5.735-6.691 7.265 2.691 5-28z"></path>
</symbol>
<symbol id="modal-email" viewBox="0 0 32 32">
<path d="M26.667 5.333h-21.333c-1.467 0-2.653 1.2-2.653 2.667l-0.013 16c0 1.467 1.2 2.667 2.667 2.667h21.333c1.467 0 2.667-1.2 2.667-2.667v-16c0-1.467-1.2-2.667-2.667-2.667zM26.133 11l-9.427 5.893c-0.427 0.267-0.987 0.267-1.413 0l-9.427-5.893c-0.333-0.213-0.533-0.573-0.533-0.96 0-0.893 0.973-1.427 1.733-0.96l8.933 5.587 8.933-5.587c0.76-0.467 1.733 0.067 1.733 0.96 0 0.387-0.2 0.747-0.533 0.96z"></path>
</symbol>
<symbol id="modal-phone" viewBox="0 0 32 32">
<path d="M24.882 19.773l-3.268-0.373c-0.785-0.090-1.557 0.18-2.11 0.733l-2.367 2.367c-3.641-1.853-6.626-4.825-8.478-8.478l2.38-2.38c0.553-0.553 0.823-1.325 0.733-2.11l-0.373-3.242c-0.154-1.299-1.248-2.277-2.56-2.277h-2.226c-1.454 0-2.663 1.209-2.573 2.663 0.682 10.987 9.469 19.761 20.443 20.443 1.454 0.090 2.663-1.119 2.663-2.573v-2.226c0.013-1.3-0.965-2.393-2.264-2.547z"></path>
</symbol>
<symbol id="modal-person" viewBox="0 0 32 32">
<path d="M16 16c2.947 0 5.333-2.387 5.333-5.333s-2.387-5.333-5.333-5.333c-2.947 0-5.333 2.387-5.333 5.333s2.387 5.333 5.333 5.333zM16 18.667c-3.56 0-10.667 1.787-10.667 5.333v1.333c0 0.733 0.6 1.333 1.333 1.333h18.667c0.733 0 1.333-0.6 1.333-1.333v-1.333c0-3.547-7.107-5.333-10.667-5.333z"></path>
</symbol>
<symbol id="menu_mob" viewBox="0 0 32 32">
<path d="M6.4 11.733v-2.133h19.2v2.133h-19.2zM6.4 17.067h19.2v-2.133h-19.2v2.133zM6.4 22.4h19.2v-2.133h-19.2v2.133z"></path>
</symbol>
<symbol id="close_mob" viewBox="0 0 32 32">
<path d="M23.733 10.304l-1.504-1.504-5.963 5.963-5.963-5.963-1.504 1.504 5.963 5.963-5.963 5.963 1.504 1.504 5.963-5.963 5.963 5.963 1.504-1.504-5.963-5.963 5.963-5.963z"></path>
</symbol>
</defs>
</svg>


